<?xml version="1.0" encoding="utf-8"?>
<!-- Generator: Adobe Illustrator 20.0.0, SVG Export Plug-In . SVG Version: 6.00 Build 0)  -->
<svg version="1.1" xmlns="http://www.w3.org/2000/svg" xmlns:xlink="http://www.w3.org/1999/xlink" x="0px" y="0px"
	 viewBox="0 0 460.6 353.6" style="enable-background:new 0 0 460.6 353.6;" xml:space="preserve">
<style type="text/css">
	.st0{font-family:'MyriadPro-Bold';}
	.st1{font-size:44px;}
</style>
<g id="Слой_1">
	<path d="M101.8,92.3c0,1.7-0.2,3.5-0.6,5.2s-1.2,3.3-2.2,4.8c-1,1.4-2.3,2.7-3.9,3.8c-1.6,1.1-3.5,1.9-5.8,2.5v0.6
		c2,0.3,3.9,0.9,5.7,1.7c1.8,0.8,3.4,1.9,4.7,3.3c1.3,1.4,2.4,3.1,3.1,5.1c0.8,2,1.1,4.4,1.1,7.1c0,3.6-0.8,6.7-2.3,9.4
		c-1.5,2.6-3.6,4.8-6.1,6.5c-2.6,1.7-5.5,2.9-8.8,3.7s-6.6,1.2-10.1,1.2c-1.1,0-2.6,0-4.4,0s-3.7,0-5.7-0.1s-4.1-0.2-6.2-0.5
		c-2.1-0.2-4-0.5-5.8-0.9v-69c1.3-0.2,2.7-0.4,4.4-0.6c1.6-0.2,3.4-0.4,5.2-0.5c1.9-0.1,3.8-0.2,5.8-0.3c2-0.1,3.9-0.1,5.9-0.1
		c3.3,0,6.4,0.2,9.5,0.8s5.9,1.4,8.3,2.6c2.4,1.3,4.4,3,5.9,5.3C101,86,101.8,88.9,101.8,92.3z M72.3,105.4c0.9,0,2,0,3.2-0.1
		s2.2-0.2,3-0.3c2.5-0.8,4.7-2,6.6-3.6c1.8-1.6,2.8-3.7,2.8-6.2c0-1.7-0.3-3.1-1-4.3c-0.7-1.1-1.6-2-2.7-2.7s-2.3-1.1-3.8-1.4
		c-1.4-0.3-2.9-0.4-4.4-0.4c-1.7,0-3.3,0-4.8,0.1s-2.6,0.2-3.4,0.3v18.5L72.3,105.4L72.3,105.4z M76.8,135.5c1.7,0,3.3-0.2,4.9-0.6
		c1.6-0.4,2.9-1,4.1-1.8s2.2-1.9,2.9-3.1c0.7-1.3,1.1-2.7,1.1-4.5c0-2.2-0.4-3.9-1.3-5.1c-0.9-1.3-2-2.2-3.4-2.9
		c-1.4-0.7-3-1.1-4.7-1.3c-1.7-0.2-3.5-0.3-5.2-0.3h-7.3V135c0.3,0.1,0.9,0.2,1.6,0.3s1.5,0.1,2.4,0.1c0.8,0,1.7,0.1,2.6,0.1
		S76.1,135.5,76.8,135.5z"/>
	<path d="M114.2,76h13.7v70h-13.7V76z"/>
	<path d="M166,109.5h26.1v31.2c-2.8,2.3-6.1,4-10,5.1s-7.8,1.6-11.5,1.6c-4.5,0-8.6-0.7-12.5-2.1c-3.8-1.4-7.1-3.6-10-6.5
		c-2.8-3-5-6.8-6.6-11.4c-1.6-4.6-2.4-10.1-2.4-16.4c0-6.6,1-12.2,2.9-16.9c1.9-4.6,4.4-8.4,7.5-11.3s6.6-5,10.5-6.3
		s7.8-1.9,11.8-1.9s7.5,0.3,10.6,0.9c3,0.6,5.4,1.2,7.2,1.9l-2.8,11.5c-1.7-0.7-3.5-1.2-5.6-1.5c-2.1-0.4-4.7-0.6-7.9-0.6
		c-2.9,0-5.5,0.4-7.9,1.3s-4.5,2.3-6.2,4.2c-1.8,2-3.1,4.5-4.1,7.5c-1,3.1-1.4,6.8-1.4,11.2c0,4.2,0.5,7.8,1.4,10.9
		c0.9,3,2.2,5.5,3.9,7.5c1.7,2,3.6,3.4,5.9,4.3c2.2,0.9,4.6,1.4,7.1,1.4c1.7,0,3.4-0.2,5.1-0.7c1.7-0.4,3.1-1.1,4.2-1.9v-13.2
		l-15.1-1.6v-8.2H166z"/>
	<path d="M101.8,198.3c0,1.7-0.2,3.5-0.6,5.2s-1.2,3.3-2.2,4.8c-1,1.4-2.3,2.7-3.9,3.8s-3.5,1.9-5.8,2.5v0.6c2,0.3,3.9,0.9,5.7,1.7
		c1.8,0.8,3.4,1.9,4.7,3.3c1.3,1.4,2.4,3.1,3.1,5.1c0.8,2,1.1,4.4,1.1,7.1c0,3.6-0.8,6.7-2.3,9.4c-1.5,2.6-3.6,4.8-6.1,6.5
		c-2.6,1.7-5.5,2.9-8.8,3.7c-3.3,0.8-6.6,1.2-10.1,1.2c-1.1,0-2.6,0-4.4,0s-3.7,0-5.7-0.1s-4.1-0.2-6.2-0.5s-4-0.5-5.8-0.9v-69
		c1.3-0.2,2.7-0.4,4.4-0.6c1.6-0.2,3.4-0.4,5.2-0.5c1.9-0.1,3.8-0.2,5.8-0.3s3.9-0.1,5.9-0.1c3.3,0,6.4,0.2,9.5,0.8s5.9,1.4,8.3,2.7
		s4.4,3,5.9,5.3C101,192,101.8,194.9,101.8,198.3z M72.3,211.4c0.9,0,2,0,3.2-0.1s2.2-0.2,3-0.3c2.5-0.8,4.7-2,6.6-3.6
		c1.8-1.6,2.8-3.7,2.8-6.2c0-1.7-0.3-3.1-1-4.3c-0.7-1.1-1.6-2-2.7-2.7s-2.3-1.1-3.8-1.4c-1.4-0.3-2.9-0.4-4.4-0.4
		c-1.7,0-3.3,0-4.8,0.1s-2.6,0.2-3.4,0.3v18.5L72.3,211.4L72.3,211.4z M76.8,241.5c1.7,0,3.3-0.2,4.9-0.6c1.6-0.4,2.9-1,4.1-1.8
		s2.2-1.9,2.9-3.1c0.7-1.3,1.1-2.7,1.1-4.5c0-2.2-0.4-3.9-1.3-5.1c-0.9-1.3-2-2.2-3.4-2.9s-3-1.1-4.7-1.3s-3.5-0.3-5.2-0.3h-7.3V241
		c0.3,0.1,0.9,0.2,1.6,0.3s1.5,0.1,2.4,0.1c0.8,0,1.7,0.1,2.6,0.1C75.3,241.5,76.1,241.5,76.8,241.5z"/>
	<path d="M113.8,182.7c1.5-0.3,3.2-0.5,5-0.8c1.8-0.2,3.5-0.4,5.3-0.5s3.5-0.2,5.1-0.3c1.7-0.1,3.2-0.1,4.6-0.1
		c3.3,0,6.5,0.3,9.6,0.9c3.2,0.6,6,1.6,8.5,3.1s4.5,3.5,6,6c1.5,2.6,2.2,5.8,2.2,9.7c0,5.7-1.3,10.4-4,14s-6.2,6.1-10.7,7.5l4.9,3.1
		l16,26.7h-15.8l-15.9-27.4l-7.2-1.3V252h-13.7L113.8,182.7L113.8,182.7z M134.8,193.2c-1.4,0-2.8,0-4.1,0.1
		c-1.4,0.1-2.4,0.2-3.1,0.4V214h5.8c3.8,0,6.8-0.9,9.1-2.6c2.3-1.7,3.4-4.6,3.4-8.6c0-3-0.9-5.3-2.8-7
		C141.1,194.1,138.4,193.2,134.8,193.2z"/>
	<path d="M168.5,217c0-11.7,2.6-20.6,7.7-27c5.1-6.3,12.5-9.4,22-9.4c5,0,9.4,0.9,13.1,2.6c3.7,1.7,6.8,4.2,9.3,7.4s4.3,7,5.5,11.5
		s1.8,9.4,1.8,14.9c0,11.7-2.6,20.7-7.8,27c-5.2,6.3-12.5,9.5-22,9.5c-5.1,0-9.5-0.9-13.2-2.6s-6.8-4.2-9.2-7.4
		c-2.4-3.2-4.2-7-5.4-11.5C169.1,227.5,168.5,222.5,168.5,217z M182.9,217c0,3.5,0.3,6.8,0.9,9.8c0.6,3,1.5,5.5,2.8,7.7
		c1.2,2.1,2.8,3.8,4.8,5c1.9,1.2,4.2,1.8,6.9,1.8c4.9,0,8.6-1.9,11.3-5.7s4-10,4-18.5c0-3.4-0.3-6.6-0.8-9.5
		c-0.6-2.9-1.5-5.5-2.7-7.7s-2.8-3.9-4.7-5.1c-1.9-1.2-4.3-1.9-7.1-1.9c-4.9,0-8.6,2-11.3,5.9C184.2,202.6,182.9,208.7,182.9,217z"
		/>
	<path d="M283.5,194.2h-20.4V252h-13.7v-57.8h-20.5V182h54.6V194.2z"/>
	<path d="M322.9,222.7h-25.6V252h-13.7v-70h13.7v28.5h25.6V182h13.7v70h-13.7V222.7z"/>
	<path d="M348.7,182h41.5v12.2h-27.8v16.3h25.3v12.2h-25.3v17.1h28.3V252h-42V182z"/>
	<path d="M400.9,182.7c1.5-0.3,3.2-0.5,5-0.8c1.8-0.2,3.5-0.4,5.3-0.5s3.5-0.2,5.2-0.3s3.2-0.1,4.6-0.1c3.3,0,6.5,0.3,9.7,0.9
		c3.2,0.6,6,1.6,8.5,3.1s4.5,3.5,6,6c1.5,2.6,2.2,5.8,2.2,9.7c0,5.7-1.3,10.4-4,14s-6.2,6.1-10.7,7.5l4.9,3.1l16,26.7h-15.8
		l-15.9-27.4l-7.2-1.3V252H401v-69.3H400.9z M421.9,193.2c-1.4,0-2.8,0-4.2,0.1c-1.4,0.1-2.4,0.2-3.1,0.4V214h5.8
		c3.8,0,6.8-0.9,9.1-2.6c2.3-1.7,3.4-4.6,3.4-8.6c0-3-0.9-5.3-2.8-7C428.2,194.1,425.5,193.2,421.9,193.2z"/>
	<g>
		<rect x="6" y="8.3" width="20" height="338.2"/>
		<path d="M33,353.6H0V0h33V353.6z M13,338.2h7V15.4h-7V338.2z"/>
	</g>
	<text transform="matrix(1.01 0 0 1 52.207 320.2404)" class="st0 st1">СЕРВИС ДЛЯ СВОИХ</text>
</g>
<g id="Слой_2">
</g>
<g id="Слой_3">
</g>
</svg>
